<svg width="109" height="33" viewBox="0 0 109 33" fill="none" xmlns="http://www.w3.org/2000/svg">
<g clip-path="url(#clip0)">
<path d="M104.204 2.67942C104.204 2.05706 104.204 1.36621 104.204 0.621762C105.818 0.621762 107.392 0.621762 109.002 0.621762C109.002 7.58089 109.002 14.5162 109.002 21.4991C107.431 21.4991 105.876 21.4991 104.231 21.4991C104.231 20.8857 104.231 20.2604 104.231 19.4772C103.684 19.9417 103.285 20.3229 102.844 20.6505C99.3976 23.1875 94.0943 22.6039 91.0562 19.3283C88.5529 16.6275 87.6891 13.3697 88.0181 9.73979C88.3178 6.43145 89.6341 3.65019 92.4077 1.78608C95.1726 -0.0720655 98.1959 -0.599137 101.322 0.767675C102.348 1.21732 103.223 2.01835 104.204 2.67942ZM104.513 10.7969C104.404 10.2371 104.322 9.23357 104.008 8.30747C103.238 6.03243 101.598 4.73709 99.2449 4.49291C96.9766 4.25766 95.1314 5.12718 93.962 7.11933C92.5223 9.57601 92.4548 12.1756 93.7299 14.7187C95.343 17.9317 99.2449 18.8042 102.11 16.6543C103.908 15.3053 104.404 13.3519 104.513 10.7969Z" fill="white"/>
<path d="M40.9258 0.568898C42.8209 0.568898 44.622 0.551031 46.426 0.59272C46.6258 0.598676 46.8814 0.911345 46.999 1.14064C48.8383 4.66337 50.6629 8.19505 52.4904 11.7267C52.5785 11.8965 52.6814 12.0543 52.8312 12.3133C53.7832 10.3748 54.694 8.52261 55.6049 6.67339C56.5216 4.81524 57.45 2.96007 58.3491 1.09299C58.5342 0.711832 58.7428 0.548053 59.1806 0.556986C60.7613 0.586764 62.345 0.568898 64.0491 0.568898C63.2529 2.14118 62.5125 3.61221 61.7632 5.08027C57.1209 14.1864 52.4757 23.2925 47.8481 32.4046C47.6248 32.8453 47.3839 33.0091 46.8961 33.0001C45.3565 32.9674 43.814 32.9882 42.1392 32.9882C42.2685 32.7053 42.3537 32.4909 42.4595 32.2914C44.8982 27.6044 47.3339 22.9143 49.7932 18.2392C50.0165 17.8163 50.0106 17.5096 49.7814 17.0868C46.9196 11.8161 44.0784 6.53046 41.2343 1.25081C41.1315 1.05726 41.0551 0.857744 40.9258 0.568898Z" fill="white"/>
<path d="M-0.000968087 0.613281C5.98701 0.613281 11.9456 0.613281 17.9571 0.613281C17.9571 7.57538 17.9571 14.5137 17.9571 21.4996C16.3852 21.4996 14.8103 21.4996 13.1532 21.4996C13.1532 16.0532 13.1532 10.6336 13.1532 5.16634C10.3443 5.16634 7.61769 5.16634 4.81174 5.16634C4.81174 10.6187 4.81174 16.0443 4.81174 21.5085C3.17812 21.5085 1.61796 21.5085 -0.00390625 21.5085C-0.000968087 14.5583 -0.000968087 7.60516 -0.000968087 0.613281Z" fill="white"/>
<path d="M66.252 17.2179C67.58 16.53 68.814 15.8898 70.0745 15.2377C70.3272 15.6456 70.5152 16.0208 70.765 16.3484C72.237 18.2661 75.7657 18.8527 77.7989 17.5335C78.7333 16.9261 79.2063 15.7826 79.0006 14.6213C78.8185 13.579 78.1456 12.9031 76.9498 12.6976C76.2799 12.5815 75.5894 12.5993 74.9048 12.5815C74.2232 12.5636 73.5415 12.5785 72.8129 12.5785C72.8129 11.2117 72.8129 9.91037 72.8129 8.50187C73.4358 8.50187 74.0645 8.51676 74.6933 8.49591C75.2045 8.47805 75.7246 8.47209 76.2211 8.36191C77.2289 8.14155 77.8078 7.40902 77.8401 6.42932C77.8724 5.4258 77.3171 4.56521 76.3299 4.30615C74.3348 3.78205 72.4985 4.08579 70.9442 5.56576C70.8208 5.68487 70.7033 5.80994 70.5799 5.92905C70.5622 5.94394 70.5358 5.94989 70.4653 5.98563C69.4722 5.11313 68.4644 4.22574 67.4096 3.29965C68.7435 1.81968 70.3242 0.831051 72.2017 0.396292C74.8931 -0.229046 77.5433 -0.214157 79.9937 1.30154C83.5901 3.52894 83.0318 8.16538 80.0819 9.74659C80.0261 9.77637 79.982 9.83295 79.9879 9.82699C80.7165 10.2558 81.5216 10.5953 82.168 11.1372C84.3863 12.9983 84.5567 16.3752 82.6734 18.9897C81.4364 20.7079 79.6706 21.4672 77.7167 21.893C74.4935 22.5988 71.4466 22.2206 68.7171 20.2195C67.674 19.4602 66.9248 18.4209 66.252 17.2179Z" fill="white"/>
<path d="M26.8086 16.7833C26.8086 12.7067 26.8086 8.75219 26.8086 4.62793C30.7781 6.6975 34.6006 8.68965 38.5524 10.7473C34.5712 12.796 30.7075 14.7793 26.8086 16.7833Z" fill="white"/>
</g>
<defs>
<clipPath id="clip0">
<rect width="109" height="33" fill="white"/>
</clipPath>
</defs>
</svg>
