<svg width="411" height="159" viewBox="0 0 411 159" fill="none" xmlns="http://www.w3.org/2000/svg">
<rect x="0.5" y="0.5" width="410" height="79" fill="white" stroke="black"/>
<rect x="0.5" y="79.5" width="410" height="79" fill="white" stroke="black"/>
<path d="M138.394 29.968H136.54V34H134.812V29.968H132.958L130.33 34H128.278L131.554 29.068L128.53 24.46H130.366L132.94 28.492H134.812V24.46H136.54V28.492H138.412L140.986 24.46H142.84L139.816 29.086L143.092 34H141.04L138.394 29.968ZM152.603 24.46L147.977 34.954C147.569 35.926 147.089 36.61 146.537 37.006C145.997 37.402 145.343 37.6 144.575 37.6C144.107 37.6 143.651 37.522 143.207 37.366C142.775 37.222 142.415 37.006 142.127 36.718L142.865 35.422C143.357 35.89 143.927 36.124 144.575 36.124C144.995 36.124 145.343 36.01 145.619 35.782C145.907 35.566 146.165 35.188 146.393 34.648L146.699 33.982L142.487 24.46H144.287L147.617 32.092L150.911 24.46H152.603ZM159.07 24.37C159.994 24.37 160.822 24.574 161.554 24.982C162.286 25.39 162.856 25.96 163.264 26.692C163.684 27.424 163.894 28.27 163.894 29.23C163.894 30.19 163.684 31.042 163.264 31.786C162.856 32.518 162.286 33.088 161.554 33.496C160.822 33.904 159.994 34.108 159.07 34.108C158.386 34.108 157.756 33.976 157.18 33.712C156.616 33.448 156.136 33.064 155.74 32.56V37.492H154.012V24.46H155.668V25.972C156.052 25.444 156.538 25.048 157.126 24.784C157.714 24.508 158.362 24.37 159.07 24.37ZM158.926 32.596C159.538 32.596 160.084 32.458 160.564 32.182C161.056 31.894 161.44 31.498 161.716 30.994C162.004 30.478 162.148 29.89 162.148 29.23C162.148 28.57 162.004 27.988 161.716 27.484C161.44 26.968 161.056 26.572 160.564 26.296C160.084 26.02 159.538 25.882 158.926 25.882C158.326 25.882 157.78 26.026 157.288 26.314C156.808 26.59 156.424 26.98 156.136 27.484C155.86 27.988 155.722 28.57 155.722 29.23C155.722 29.89 155.86 30.478 156.136 30.994C156.412 31.498 156.796 31.894 157.288 32.182C157.78 32.458 158.326 32.596 158.926 32.596ZM166.044 24.46H167.772V28.51H173.208V24.46H174.936V34H173.208V30.004H167.772V34H166.044V24.46ZM181.338 24.37C182.658 24.37 183.666 24.694 184.362 25.342C185.07 25.99 185.424 26.956 185.424 28.24V34H183.786V32.74C183.498 33.184 183.084 33.526 182.544 33.766C182.016 33.994 181.386 34.108 180.654 34.108C179.586 34.108 178.728 33.85 178.08 33.334C177.444 32.818 177.126 32.14 177.126 31.3C177.126 30.46 177.432 29.788 178.044 29.284C178.656 28.768 179.628 28.51 180.96 28.51H183.696V28.168C183.696 27.424 183.48 26.854 183.048 26.458C182.616 26.062 181.98 25.864 181.14 25.864C180.576 25.864 180.024 25.96 179.484 26.152C178.944 26.332 178.488 26.578 178.116 26.89L177.396 25.594C177.888 25.198 178.476 24.898 179.16 24.694C179.844 24.478 180.57 24.37 181.338 24.37ZM180.942 32.776C181.602 32.776 182.172 32.632 182.652 32.344C183.132 32.044 183.48 31.624 183.696 31.084V29.752H181.032C179.568 29.752 178.836 30.244 178.836 31.228C178.836 31.708 179.022 32.086 179.394 32.362C179.766 32.638 180.282 32.776 180.942 32.776ZM196.366 24.46V34H194.638V25.972H190.534L190.426 28.096C190.366 29.38 190.252 30.454 190.084 31.318C189.916 32.17 189.64 32.854 189.256 33.37C188.872 33.886 188.338 34.144 187.654 34.144C187.342 34.144 186.988 34.09 186.592 33.982L186.7 32.524C186.856 32.56 187 32.578 187.132 32.578C187.612 32.578 187.972 32.368 188.212 31.948C188.452 31.528 188.608 31.03 188.68 30.454C188.752 29.878 188.818 29.056 188.878 27.988L189.04 24.46H196.366ZM202.975 29.23L205.567 25.774H207.151L204.613 29.23L207.151 32.668H205.567L202.975 29.23ZM206.431 29.23L209.023 25.774H210.607L208.069 29.23L210.607 32.668H209.023L206.431 29.23ZM223.673 21.4V34H221.909V22.966H214.601V34H212.819V21.4H223.673ZM230.357 24.37C231.677 24.37 232.685 24.694 233.381 25.342C234.089 25.99 234.443 26.956 234.443 28.24V34H232.805V32.74C232.517 33.184 232.103 33.526 231.563 33.766C231.035 33.994 230.405 34.108 229.673 34.108C228.605 34.108 227.747 33.85 227.099 33.334C226.463 32.818 226.145 32.14 226.145 31.3C226.145 30.46 226.451 29.788 227.063 29.284C227.675 28.768 228.647 28.51 229.979 28.51H232.715V28.168C232.715 27.424 232.499 26.854 232.067 26.458C231.635 26.062 230.999 25.864 230.159 25.864C229.595 25.864 229.043 25.96 228.503 26.152C227.963 26.332 227.507 26.578 227.135 26.89L226.415 25.594C226.907 25.198 227.495 24.898 228.179 24.694C228.863 24.478 229.589 24.37 230.357 24.37ZM229.961 32.776C230.621 32.776 231.191 32.632 231.671 32.344C232.151 32.044 232.499 31.624 232.715 31.084V29.752H230.051C228.587 29.752 227.855 30.244 227.855 31.228C227.855 31.708 228.041 32.086 228.413 32.362C228.785 32.638 229.301 32.776 229.961 32.776ZM245.708 24.46L241.082 34.954C240.674 35.926 240.194 36.61 239.642 37.006C239.102 37.402 238.448 37.6 237.68 37.6C237.212 37.6 236.756 37.522 236.312 37.366C235.88 37.222 235.52 37.006 235.232 36.718L235.97 35.422C236.462 35.89 237.032 36.124 237.68 36.124C238.1 36.124 238.448 36.01 238.724 35.782C239.012 35.566 239.27 35.188 239.498 34.648L239.804 33.982L235.592 24.46H237.392L240.722 32.092L244.016 24.46H245.708ZM252.055 29.032C252.691 29.2 253.183 29.47 253.531 29.842C253.879 30.214 254.053 30.676 254.053 31.228C254.053 31.792 253.861 32.296 253.477 32.74C253.093 33.172 252.559 33.514 251.875 33.766C251.203 34.006 250.447 34.126 249.607 34.126C248.899 34.126 248.203 34.036 247.519 33.856C246.847 33.664 246.247 33.394 245.719 33.046L246.241 31.732C246.697 32.02 247.219 32.248 247.807 32.416C248.395 32.572 248.989 32.65 249.589 32.65C250.405 32.65 251.053 32.512 251.533 32.236C252.025 31.948 252.271 31.564 252.271 31.084C252.271 30.64 252.073 30.298 251.677 30.058C251.293 29.818 250.747 29.698 250.039 29.698H248.293V28.456H249.913C250.561 28.456 251.071 28.342 251.443 28.114C251.815 27.886 252.001 27.574 252.001 27.178C252.001 26.746 251.779 26.41 251.335 26.17C250.903 25.93 250.315 25.81 249.571 25.81C248.623 25.81 247.621 26.056 246.565 26.548L246.097 25.216C247.261 24.628 248.479 24.334 249.751 24.334C250.519 24.334 251.209 24.442 251.821 24.658C252.433 24.874 252.913 25.18 253.261 25.576C253.609 25.972 253.783 26.422 253.783 26.926C253.783 27.394 253.627 27.814 253.315 28.186C253.003 28.558 252.583 28.84 252.055 29.032ZM259.722 24.37C261.042 24.37 262.05 24.694 262.746 25.342C263.454 25.99 263.808 26.956 263.808 28.24V34H262.17V32.74C261.882 33.184 261.468 33.526 260.928 33.766C260.4 33.994 259.77 34.108 259.038 34.108C257.97 34.108 257.112 33.85 256.464 33.334C255.828 32.818 255.51 32.14 255.51 31.3C255.51 30.46 255.816 29.788 256.428 29.284C257.04 28.768 258.012 28.51 259.344 28.51H262.08V28.168C262.08 27.424 261.864 26.854 261.432 26.458C261 26.062 260.364 25.864 259.524 25.864C258.96 25.864 258.408 25.96 257.868 26.152C257.328 26.332 256.872 26.578 256.5 26.89L255.78 25.594C256.272 25.198 256.86 24.898 257.544 24.694C258.228 24.478 258.954 24.37 259.722 24.37ZM259.326 32.776C259.986 32.776 260.556 32.632 261.036 32.344C261.516 32.044 261.864 31.624 262.08 31.084V29.752H259.416C257.952 29.752 257.22 30.244 257.22 31.228C257.22 31.708 257.406 32.086 257.778 32.362C258.15 32.638 258.666 32.776 259.326 32.776ZM265.498 32.668L268.036 29.23L265.498 25.774H267.082L269.674 29.23L267.082 32.668H265.498ZM268.954 32.668L271.492 29.23L268.954 25.774H270.538L273.13 29.23L270.538 32.668H268.954ZM149.883 51.05C151.119 51.362 151.737 52.136 151.737 53.372C151.737 54.212 151.419 54.86 150.783 55.316C150.159 55.772 149.223 56 147.975 56H143.385V46.46H147.813C148.941 46.46 149.823 46.676 150.459 47.108C151.095 47.528 151.413 48.128 151.413 48.908C151.413 49.412 151.275 49.85 150.999 50.222C150.735 50.582 150.363 50.858 149.883 51.05ZM145.077 50.564H147.669C148.329 50.564 148.827 50.444 149.163 50.204C149.511 49.964 149.685 49.616 149.685 49.16C149.685 48.248 149.013 47.792 147.669 47.792H145.077V50.564ZM147.849 54.668C148.569 54.668 149.109 54.554 149.469 54.326C149.829 54.098 150.009 53.744 150.009 53.264C150.009 52.772 149.841 52.406 149.505 52.166C149.181 51.926 148.665 51.806 147.957 51.806H145.077V54.668H147.849ZM158.384 49.7C159.584 49.712 160.502 49.988 161.138 50.528C161.774 51.068 162.092 51.83 162.092 52.814C162.092 53.846 161.744 54.644 161.048 55.208C160.364 55.76 159.38 56.03 158.096 56.018L154.082 56V46.46H155.81V49.682L158.384 49.7ZM163.514 46.46H165.242V56H163.514V46.46ZM157.97 54.704C158.75 54.716 159.338 54.56 159.734 54.236C160.142 53.912 160.346 53.432 160.346 52.796C160.346 52.172 160.148 51.716 159.752 51.428C159.356 51.14 158.762 50.99 157.97 50.978L155.81 50.942V54.686L157.97 54.704ZM177.08 46.46V56H175.352V47.972H169.97V56H168.242V46.46H177.08ZM188.577 46.46L183.951 56.954C183.543 57.926 183.063 58.61 182.511 59.006C181.971 59.402 181.317 59.6 180.549 59.6C180.081 59.6 179.625 59.522 179.181 59.366C178.749 59.222 178.389 59.006 178.101 58.718L178.839 57.422C179.331 57.89 179.901 58.124 180.549 58.124C180.969 58.124 181.317 58.01 181.593 57.782C181.881 57.566 182.139 57.188 182.367 56.648L182.673 55.982L178.461 46.46H180.261L183.591 54.092L186.885 46.46H188.577ZM193.881 56.108C192.909 56.108 192.039 55.898 191.271 55.478C190.515 55.058 189.921 54.482 189.489 53.75C189.057 53.006 188.841 52.166 188.841 51.23C188.841 50.294 189.057 49.46 189.489 48.728C189.921 47.984 190.515 47.408 191.271 47C192.039 46.58 192.909 46.37 193.881 46.37C194.745 46.37 195.513 46.544 196.185 46.892C196.869 47.24 197.397 47.744 197.769 48.404L196.455 49.25C196.155 48.794 195.783 48.452 195.339 48.224C194.895 47.996 194.403 47.882 193.863 47.882C193.239 47.882 192.675 48.02 192.171 48.296C191.679 48.572 191.289 48.968 191.001 49.484C190.725 49.988 190.587 50.57 190.587 51.23C190.587 51.902 190.725 52.496 191.001 53.012C191.289 53.516 191.679 53.906 192.171 54.182C192.675 54.458 193.239 54.596 193.863 54.596C194.403 54.596 194.895 54.482 195.339 54.254C195.783 54.026 196.155 53.684 196.455 53.228L197.769 54.056C197.397 54.716 196.869 55.226 196.185 55.586C195.513 55.934 194.745 56.108 193.881 56.108ZM203.354 51.968H201.374V56H199.646V46.46H201.374V50.492H203.39L206.486 46.46H208.34L204.722 51.05L208.592 56H206.558L203.354 51.968ZM218.856 56.144C217.86 56.144 216.972 55.892 216.192 55.388C215.424 54.872 214.818 54.128 214.374 53.156C213.93 52.184 213.708 51.032 213.708 49.7C213.708 48.368 213.93 47.216 214.374 46.244C214.818 45.272 215.424 44.534 216.192 44.03C216.972 43.514 217.86 43.256 218.856 43.256C219.84 43.256 220.716 43.514 221.484 44.03C222.264 44.534 222.876 45.272 223.32 46.244C223.764 47.216 223.986 48.368 223.986 49.7C223.986 51.032 223.764 52.184 223.32 53.156C222.876 54.128 222.264 54.872 221.484 55.388C220.716 55.892 219.84 56.144 218.856 56.144ZM218.856 54.542C219.864 54.542 220.668 54.128 221.268 53.3C221.88 52.472 222.186 51.272 222.186 49.7C222.186 48.128 221.88 46.928 221.268 46.1C220.668 45.272 219.864 44.858 218.856 44.858C217.836 44.858 217.02 45.272 216.408 46.1C215.808 46.928 215.508 48.128 215.508 49.7C215.508 51.272 215.808 52.472 216.408 53.3C217.02 54.128 217.836 54.542 218.856 54.542ZM228.954 48.422C230.754 48.422 232.074 48.764 232.914 49.448C233.766 50.12 234.192 51.044 234.192 52.22C234.192 52.964 234.012 53.636 233.652 54.236C233.304 54.824 232.77 55.292 232.05 55.64C231.342 55.976 230.466 56.144 229.422 56.144C228.534 56.144 227.676 56.012 226.848 55.748C226.02 55.472 225.336 55.094 224.796 54.614L225.624 53.192C226.056 53.6 226.608 53.93 227.28 54.182C227.952 54.422 228.66 54.542 229.404 54.542C230.352 54.542 231.084 54.344 231.6 53.948C232.128 53.54 232.392 52.988 232.392 52.292C232.392 51.536 232.104 50.966 231.528 50.582C230.952 50.186 229.968 49.988 228.576 49.988H225.714L226.38 43.4H233.49V44.966H227.892L227.55 48.422H228.954ZM236.518 56.108C236.182 56.108 235.894 55.994 235.654 55.766C235.414 55.526 235.294 55.226 235.294 54.866C235.294 54.518 235.414 54.23 235.654 54.002C235.894 53.762 236.182 53.642 236.518 53.642C236.854 53.642 237.136 53.756 237.364 53.984C237.592 54.212 237.706 54.506 237.706 54.866C237.706 55.226 237.586 55.526 237.346 55.766C237.118 55.994 236.842 56.108 236.518 56.108ZM248.079 54.434V56H239.025V54.776L244.155 49.826C244.779 49.226 245.199 48.71 245.415 48.278C245.631 47.834 245.739 47.39 245.739 46.946C245.739 46.286 245.505 45.776 245.037 45.416C244.581 45.044 243.921 44.858 243.057 44.858C241.665 44.858 240.591 45.314 239.835 46.226L238.611 45.164C239.103 44.564 239.745 44.096 240.537 43.76C241.341 43.424 242.235 43.256 243.219 43.256C244.539 43.256 245.589 43.574 246.369 44.21C247.149 44.834 247.539 45.686 247.539 46.766C247.539 47.438 247.395 48.074 247.107 48.674C246.819 49.274 246.273 49.958 245.469 50.726L241.617 54.434H248.079ZM254.295 56.144C253.299 56.144 252.411 55.892 251.631 55.388C250.863 54.872 250.257 54.128 249.813 53.156C249.369 52.184 249.147 51.032 249.147 49.7C249.147 48.368 249.369 47.216 249.813 46.244C250.257 45.272 250.863 44.534 251.631 44.03C252.411 43.514 253.299 43.256 254.295 43.256C255.279 43.256 256.155 43.514 256.923 44.03C257.703 44.534 258.315 45.272 258.759 46.244C259.203 47.216 259.425 48.368 259.425 49.7C259.425 51.032 259.203 52.184 258.759 53.156C258.315 54.128 257.703 54.872 256.923 55.388C256.155 55.892 255.279 56.144 254.295 56.144ZM254.295 54.542C255.303 54.542 256.107 54.128 256.707 53.3C257.319 52.472 257.625 51.272 257.625 49.7C257.625 48.128 257.319 46.928 256.707 46.1C256.107 45.272 255.303 44.858 254.295 44.858C253.275 44.858 252.459 45.272 251.847 46.1C251.247 46.928 250.947 48.128 250.947 49.7C250.947 51.272 251.247 52.472 251.847 53.3C252.459 54.128 253.275 54.542 254.295 54.542ZM183.926 120.434V122H174.872V120.776L180.002 115.826C180.626 115.226 181.046 114.71 181.262 114.278C181.478 113.834 181.586 113.39 181.586 112.946C181.586 112.286 181.352 111.776 180.884 111.416C180.428 111.044 179.768 110.858 178.904 110.858C177.512 110.858 176.438 111.314 175.682 112.226L174.458 111.164C174.95 110.564 175.592 110.096 176.384 109.76C177.188 109.424 178.082 109.256 179.066 109.256C180.386 109.256 181.436 109.574 182.216 110.21C182.996 110.834 183.386 111.686 183.386 112.766C183.386 113.438 183.242 114.074 182.954 114.674C182.666 115.274 182.12 115.958 181.316 116.726L177.464 120.434H183.926ZM190.141 122.144C189.145 122.144 188.257 121.892 187.477 121.388C186.709 120.872 186.103 120.128 185.659 119.156C185.215 118.184 184.993 117.032 184.993 115.7C184.993 114.368 185.215 113.216 185.659 112.244C186.103 111.272 186.709 110.534 187.477 110.03C188.257 109.514 189.145 109.256 190.141 109.256C191.125 109.256 192.001 109.514 192.769 110.03C193.549 110.534 194.161 111.272 194.605 112.244C195.049 113.216 195.271 114.368 195.271 115.7C195.271 117.032 195.049 118.184 194.605 119.156C194.161 120.128 193.549 120.872 192.769 121.388C192.001 121.892 191.125 122.144 190.141 122.144ZM190.141 120.542C191.149 120.542 191.953 120.128 192.553 119.3C193.165 118.472 193.471 117.272 193.471 115.7C193.471 114.128 193.165 112.928 192.553 112.1C191.953 111.272 191.149 110.858 190.141 110.858C189.121 110.858 188.305 111.272 187.693 112.1C187.093 112.928 186.793 114.128 186.793 115.7C186.793 117.272 187.093 118.472 187.693 119.3C188.305 120.128 189.121 120.542 190.141 120.542ZM201.787 122.144C200.791 122.144 199.903 121.892 199.123 121.388C198.355 120.872 197.749 120.128 197.305 119.156C196.861 118.184 196.639 117.032 196.639 115.7C196.639 114.368 196.861 113.216 197.305 112.244C197.749 111.272 198.355 110.534 199.123 110.03C199.903 109.514 200.791 109.256 201.787 109.256C202.771 109.256 203.647 109.514 204.415 110.03C205.195 110.534 205.807 111.272 206.251 112.244C206.695 113.216 206.917 114.368 206.917 115.7C206.917 117.032 206.695 118.184 206.251 119.156C205.807 120.128 205.195 120.872 204.415 121.388C203.647 121.892 202.771 122.144 201.787 122.144ZM201.787 120.542C202.795 120.542 203.599 120.128 204.199 119.3C204.811 118.472 205.117 117.272 205.117 115.7C205.117 114.128 204.811 112.928 204.199 112.1C203.599 111.272 202.795 110.858 201.787 110.858C200.767 110.858 199.951 111.272 199.339 112.1C198.739 112.928 198.439 114.128 198.439 115.7C198.439 117.272 198.739 118.472 199.339 119.3C199.951 120.128 200.767 120.542 201.787 120.542ZM218.627 112.37C219.551 112.37 220.379 112.574 221.111 112.982C221.843 113.39 222.413 113.96 222.821 114.692C223.241 115.424 223.451 116.27 223.451 117.23C223.451 118.19 223.241 119.042 222.821 119.786C222.413 120.518 221.843 121.088 221.111 121.496C220.379 121.904 219.551 122.108 218.627 122.108C217.943 122.108 217.313 121.976 216.737 121.712C216.173 121.448 215.693 121.064 215.297 120.56V125.492H213.569V112.46H215.225V113.972C215.609 113.444 216.095 113.048 216.683 112.784C217.271 112.508 217.919 112.37 218.627 112.37ZM218.483 120.596C219.095 120.596 219.641 120.458 220.121 120.182C220.613 119.894 220.997 119.498 221.273 118.994C221.561 118.478 221.705 117.89 221.705 117.23C221.705 116.57 221.561 115.988 221.273 115.484C220.997 114.968 220.613 114.572 220.121 114.296C219.641 114.02 219.095 113.882 218.483 113.882C217.883 113.882 217.337 114.026 216.845 114.314C216.365 114.59 215.981 114.98 215.693 115.484C215.417 115.988 215.279 116.57 215.279 117.23C215.279 117.89 215.417 118.478 215.693 118.994C215.969 119.498 216.353 119.894 216.845 120.182C217.337 120.458 217.883 120.596 218.483 120.596ZM225.768 122.108C225.432 122.108 225.144 121.994 224.904 121.766C224.664 121.526 224.544 121.226 224.544 120.866C224.544 120.518 224.664 120.23 224.904 120.002C225.144 119.762 225.432 119.642 225.768 119.642C226.104 119.642 226.386 119.756 226.614 119.984C226.842 120.212 226.956 120.506 226.956 120.866C226.956 121.226 226.836 121.526 226.596 121.766C226.368 121.994 226.092 122.108 225.768 122.108Z" fill="black"/>
<path d="M374 0V37H411" stroke="black"/>
<line x1="392.5" y1="8" x2="392.5" y2="28" stroke="black"/>
<line x1="402" y1="18.5" x2="382" y2="18.5" stroke="black"/>
</svg>
