<svg width="139" height="28" viewBox="0 0 139 28" fill="none" xmlns="http://www.w3.org/2000/svg">
<g clip-path="url(#clip0)">
<path d="M0 14.583C0 14.195 0 13.807 0 13.4189C0.0251971 13.142 0.0467947 12.8633 0.0737916 12.5864C0.226774 11.0572 0.629928 9.59329 1.28325 8.19637C3.40881 3.65111 7.78052 0.5839 12.8559 0.0759312C14.5513 -0.0933917 16.227 0.0318366 17.8756 0.451616C23.7555 1.94201 28.0282 6.93527 28.5196 12.8845C28.6779 14.807 28.4548 16.6872 27.8068 18.5074C26.538 22.0685 24.1839 24.7212 20.7768 26.4691C19.1966 27.2805 17.5066 27.7532 15.7302 27.926C15.4458 27.9542 15.1633 27.9754 14.8789 28.0001C14.483 28.0001 14.087 28.0001 13.691 28.0001C13.6352 27.993 13.5795 27.9807 13.5219 27.9789C12.5536 27.9331 11.5979 27.7955 10.6638 27.5433C6.71504 26.4797 3.73817 24.1903 1.7404 20.6928C0.804509 19.0542 0.26457 17.2869 0.0755914 15.4173C0.0467947 15.1404 0.0251971 14.8617 0 14.583Z" fill="white"/>
<path d="M17.9303 10.8401C17.5146 10.8506 17.1672 10.5243 17.1546 10.1116C17.142 9.70772 17.4804 9.35672 17.8962 9.34791C18.3191 9.33732 18.6719 9.66539 18.6827 10.0781C18.6917 10.4891 18.3569 10.8295 17.9303 10.8401Z" fill="black"/>
<path d="M49.5238 -0.000576699C57.2108 0.00118708 63.861 5.98569 63.8142 14.0779C63.7692 21.895 57.5005 28.003 49.4698 27.9994C41.3906 27.9959 35.1219 21.8333 35.1309 13.9774C35.1399 5.86752 41.8531 -0.0570176 49.5238 -0.000576699Z" fill="white"/>
<path d="M45.7625 10.5247C46.1134 10.329 46.369 10.075 46.6462 10.0538C47.4813 9.98855 48.3254 9.99384 49.1641 10.008C49.848 10.0185 50.136 10.4577 50.1396 11.068C50.1432 11.6747 50.055 12.2832 50.0532 12.89C50.0532 13.3115 50.1342 13.7313 50.2026 14.3786C50.5895 14.047 50.8541 13.9059 50.9909 13.6854C51.5344 12.8141 52.0798 11.9393 52.5351 11.0239C52.7799 10.5336 53.0805 10.3166 53.6186 10.3272C54.3403 10.3413 55.062 10.306 55.7837 10.3254C56.6296 10.3466 56.9122 10.7399 56.4893 11.4507C55.9385 12.3732 55.2906 13.2427 54.6445 14.1034C53.93 15.0541 53.9426 15.1458 54.8083 15.9713C55.3932 16.5304 55.9547 17.1248 56.4371 17.7686C56.9032 18.3912 56.6962 18.8427 55.9097 18.9521C54.2161 19.1902 52.5675 19.2502 51.4354 17.601C51.2573 17.34 50.8523 17.2289 50.5517 17.0472C50.415 17.3682 50.1936 17.6804 50.1612 18.0102C50.0856 18.7528 49.6842 19.0015 48.9751 19.0138C47.0061 19.0473 45.2765 18.4106 44.1499 16.8497C42.8792 15.0894 41.8299 13.1704 40.7321 11.2955C40.3901 10.7117 40.6313 10.3678 41.3224 10.3307C41.9667 10.2955 42.6308 10.2337 43.2572 10.3466C43.6261 10.4136 44.0365 10.7311 44.2507 11.0503C44.7942 11.8617 45.2208 12.7471 45.7283 13.5831C45.8831 13.8389 46.1494 14.0294 46.3726 14.2587C47.1591 13.2586 46.8982 11.4366 45.7625 10.5247Z" fill="black"/>
<path d="M101.355 13.4545C101.355 13.839 101.355 14.2235 101.355 14.6063C101.33 14.7368 101.299 14.8673 101.278 14.9996C101.128 15.8991 101.058 16.8181 100.819 17.6929C99.314 23.1835 94.4419 27.4395 88.2273 27.9281C85.5834 28.1362 83.0438 27.6671 80.6681 26.4712C74.7126 23.4728 71.6853 17.0138 73.2997 10.6501C75.0545 3.73435 81.874 -0.906154 89.4241 0.275579C92.5738 0.769437 95.2537 2.18928 97.4458 4.46455C99.4364 6.5317 100.675 8.97278 101.134 11.7842C101.224 12.3398 101.283 12.8989 101.355 13.4545Z" fill="white"/>
<path d="M84.1387 13.9811C84.1387 13.2439 84.1387 12.5401 84.1387 11.8064C84.504 11.8064 84.8586 11.7958 85.2132 11.8099C85.4075 11.8187 85.4651 11.7552 85.4651 11.57C85.4651 10.9739 85.4633 10.3777 85.4921 9.78333C85.5443 8.6792 86.2174 7.9049 87.3513 7.76909C88.199 7.66679 89.0629 7.69325 89.9214 7.67385C89.9772 7.67209 90.0852 7.77968 90.0852 7.83788C90.0978 8.47284 90.0906 9.10957 90.0942 9.74453C90.096 9.90503 90.0042 9.92267 89.8764 9.92267C89.4625 9.9209 89.0485 9.91914 88.6364 9.92443C88.2512 9.92972 88.1054 10.0691 88.1 10.443C88.0946 10.8857 88.0982 11.3302 88.0982 11.8011C88.7641 11.8011 89.4103 11.8011 90.087 11.8011C90.0708 11.9933 90.0582 12.1539 90.0456 12.3161C90.006 12.7747 89.9574 13.2333 89.9286 13.6919C89.916 13.9035 89.8296 13.9741 89.6137 13.967C89.2339 13.9511 88.8523 13.9617 88.4708 13.9635C88.0226 13.9635 88.1 13.9564 88.0982 14.3409C88.0964 16.2317 88.0928 18.1242 88.1018 20.015C88.1036 20.2549 88.0406 20.3307 87.7905 20.3254C87.1173 20.3096 86.4442 20.3096 85.7711 20.3254C85.5191 20.3325 85.4561 20.2478 85.4561 20.0133C85.4633 18.1137 85.4597 16.2141 85.4597 14.3145C85.4597 13.9829 85.4597 13.9829 85.1142 13.9829C84.7992 13.9811 84.4842 13.9811 84.1387 13.9811Z" fill="black"/>
<path d="M124.7 0.00515447C132.35 -0.0812707 138.938 6.03375 139.001 13.8702C139.066 21.8743 132.359 28.1392 124.43 27.9946C116.872 27.8552 110.478 21.8266 110.415 14.1083C110.346 6.10078 117.077 -0.0971447 124.7 0.00515447Z" fill="white"/>
<path d="M130.95 12.9161C131.542 12.738 132.108 12.7098 132.658 12.9726C133.517 13.3835 133.997 14.3078 133.807 15.1773C133.592 16.1491 132.831 16.807 131.836 16.8176C129.971 16.8388 128.107 16.83 126.244 16.8388C126.035 16.8405 125.988 16.7577 125.988 16.5707C125.994 14.4136 125.994 12.2582 125.988 10.1011C125.988 9.93182 126.046 9.84011 126.206 9.79777C128.15 9.2757 130.135 10.2158 130.772 12.1648C130.846 12.3994 130.886 12.6445 130.95 12.9161Z" fill="black"/>
<path d="M14.2854 20.9588C13.6051 20.9588 12.9248 20.9659 12.2445 20.957C11.5749 20.9482 10.9054 20.9376 10.2485 20.7895C8.70967 20.442 7.64599 19.3591 7.35263 17.8034C7.22664 17.1332 7.21944 16.4559 7.21764 15.7786C7.21224 14.424 7.21404 13.0694 7.22844 11.7148C7.23564 11.0905 7.26624 10.4661 7.44982 9.86111C7.88537 8.43597 8.86266 7.58407 10.3313 7.25953C10.8568 7.14312 11.395 7.11843 11.9295 7.11667C13.4953 7.10785 15.0612 7.10608 16.627 7.11667C17.2497 7.12019 17.8724 7.15018 18.4772 7.31774C19.9728 7.73399 20.8673 8.7023 21.1985 10.1786C21.337 10.7924 21.3424 11.4185 21.346 12.0429C21.355 13.3693 21.355 14.6956 21.346 16.022C21.3424 16.6711 21.3352 17.3219 21.1805 17.9586C20.8025 19.5178 19.8054 20.4632 18.2126 20.8089C17.5971 20.9429 16.9689 20.9465 16.3426 20.9553C15.6605 20.9659 14.973 20.9588 14.2854 20.9588ZM8.4559 14.0342C8.4631 14.0342 8.4685 14.0342 8.4757 14.0342C8.4757 14.5422 8.4685 15.0501 8.4775 15.5581C8.4901 16.246 8.4685 16.9356 8.60709 17.6147C8.80866 18.6095 9.3954 19.2691 10.4051 19.546C10.846 19.6677 11.2996 19.6995 11.7513 19.7012C13.4395 19.7083 15.1277 19.7101 16.816 19.6995C17.1849 19.6977 17.5593 19.6642 17.921 19.5972C18.9559 19.4084 19.638 18.8193 19.9188 17.8122C20.043 17.366 20.07 16.9074 20.0718 16.4488C20.079 14.8367 20.079 13.2246 20.0718 11.6125C20.07 11.1928 20.0448 10.773 19.9458 10.362C19.7622 9.58772 19.3339 9.00215 18.5852 8.66526C18.1604 8.47478 17.7051 8.39717 17.2425 8.38482C16.4542 8.36189 15.6659 8.34249 14.8776 8.34073C13.8373 8.33897 12.797 8.34249 11.7567 8.36719C11.3446 8.376 10.927 8.41304 10.5257 8.49594C9.64017 8.67761 9.02464 9.19087 8.71687 10.0375C8.58729 10.392 8.52789 10.7624 8.5171 11.1363C8.4937 12.1011 8.4775 13.0677 8.4559 14.0342Z" fill="black"/>
<path d="M10.6523 14.0296C10.6541 12.0665 12.2794 10.4721 14.2771 10.4756C16.2965 10.4791 17.9181 12.0683 17.9163 14.0384C17.9127 16.0103 16.2857 17.5977 14.2681 17.5942C12.2704 17.5907 10.6523 15.9945 10.6523 14.0296ZM14.2897 11.7138C12.9903 11.7085 11.9284 12.742 11.9176 14.0225C11.9068 15.2995 12.9705 16.3472 14.2789 16.3507C15.5892 16.3543 16.6475 15.3207 16.6493 14.0331C16.6511 12.7562 15.5964 11.7191 14.2897 11.7138Z" fill="black"/>
<path d="M125.605 16.8385C125.467 16.8385 125.326 16.8261 125.188 16.8402C124.957 16.8649 124.891 16.7714 124.893 16.551C124.902 15.3534 124.896 14.154 124.896 12.9564C124.896 12.2967 124.898 11.6389 124.898 10.9792C124.898 10.4254 125.013 10.2754 125.605 10.085C125.605 12.3303 125.605 14.5667 125.605 16.8385Z" fill="black"/>
<path d="M122.768 11.0361C122.949 11.045 123.119 11.0273 123.266 11.0696C123.353 11.0943 123.473 11.2178 123.473 11.2972C123.486 13.1244 123.482 14.9535 123.482 16.809C123.241 16.809 123.014 16.809 122.768 16.809C122.768 14.8882 122.768 12.9781 122.768 11.0361Z" fill="black"/>
<path d="M122.359 11.0742C122.359 12.9844 122.359 14.8928 122.359 16.8206C122.13 16.8206 121.92 16.8206 121.664 16.8206C121.664 16.6548 121.664 16.4978 121.664 16.3426C121.664 14.7958 121.666 13.2472 121.666 11.7004C121.668 11.1412 121.729 11.0848 122.359 11.0742Z" fill="black"/>
<path d="M124.564 16.8021C124.521 16.8145 124.494 16.8303 124.463 16.8321C123.85 16.8815 123.85 16.8815 123.85 16.2748C123.85 14.7367 123.85 13.1987 123.851 11.6607C123.851 11.5443 123.851 11.4279 123.851 11.2674C124.292 11.4826 124.273 10.9746 124.564 10.9199C124.564 12.8865 124.564 14.8443 124.564 16.8021Z" fill="black"/>
<path d="M121.273 16.7875C121.247 16.8069 121.24 16.8174 121.231 16.8192C120.58 16.9109 120.567 16.9003 120.565 16.2619C120.565 14.9143 120.563 13.565 120.565 12.2175C120.565 11.8771 120.884 11.542 121.273 11.4873C121.273 13.2581 121.273 15.029 121.273 16.7875Z" fill="black"/>
<path d="M119.518 13.0891C119.649 13.1332 119.743 13.1649 119.84 13.1967C119.935 12.985 120.031 12.7734 120.124 12.5635C120.16 12.5688 120.198 12.5758 120.234 12.5811C120.234 13.172 120.234 13.7646 120.234 14.3555C120.234 15.0927 120.22 15.83 120.236 16.5673C120.243 16.9324 119.995 16.8212 119.802 16.8406C119.592 16.8618 119.494 16.8054 119.496 16.5655C119.509 15.4896 119.5 14.4119 119.5 13.336C119.502 13.2672 119.511 13.1984 119.518 13.0891Z" fill="black"/>
<path d="M118.543 12.9639C118.743 12.9639 118.925 12.9639 119.124 12.9639C119.124 14.2514 119.124 15.5231 119.124 16.8142C118.941 16.8142 118.754 16.8142 118.543 16.8142C118.543 15.5284 118.543 14.2567 118.543 12.9639Z" fill="black"/>
<path d="M118.147 13.1045C118.147 14.295 118.147 15.4838 118.147 16.6762C117.704 16.6268 117.604 16.5209 117.604 16.1241C117.604 15.2863 117.604 14.4503 117.604 13.6125C117.604 13.2474 117.733 13.1204 118.147 13.1045Z" fill="black"/>
<path d="M117.277 16.0593C116.678 15.6819 116.627 14.1827 117.277 13.7012C117.277 14.5002 117.277 15.2727 117.277 16.0593Z" fill="black"/>
</g>
<defs>
<clipPath id="clip0">
<rect width="139" height="28" fill="white"/>
</clipPath>
</defs>
</svg>
