<svg width="270" height="162" viewBox="0 0 270 162" fill="none" xmlns="http://www.w3.org/2000/svg">
<path d="M0 1H269V81H0" stroke="black"/>
<path d="M0 81H269V161H0" stroke="black"/>
<path d="M101.893 35.212C101.893 36.688 101.401 37.852 100.417 38.704C99.4333 39.556 98.0473 40.03 96.2593 40.126V43.492H94.5673V40.126C92.7793 40.03 91.3933 39.562 90.4093 38.722C89.4373 37.87 88.9513 36.7 88.9513 35.212C88.9513 33.736 89.4373 32.584 90.4093 31.756C91.3813 30.928 92.7673 30.466 94.5673 30.37V26.644H96.2593V30.37C98.0473 30.466 99.4333 30.934 100.417 31.774C101.401 32.602 101.893 33.748 101.893 35.212ZM90.6613 35.212C90.6613 36.232 90.9853 37.03 91.6333 37.606C92.2933 38.182 93.2713 38.512 94.5673 38.596V31.9C93.2593 31.984 92.2813 32.308 91.6333 32.872C90.9853 33.436 90.6613 34.216 90.6613 35.212ZM96.2593 38.614C98.8753 38.41 100.183 37.276 100.183 35.212C100.183 34.204 99.8533 33.424 99.1933 32.872C98.5333 32.308 97.5553 31.984 96.2593 31.9V38.614ZM112.226 30.46L107.6 40.954C107.192 41.926 106.712 42.61 106.16 43.006C105.62 43.402 104.966 43.6 104.198 43.6C103.73 43.6 103.274 43.522 102.83 43.366C102.398 43.222 102.038 43.006 101.75 42.718L102.488 41.422C102.98 41.89 103.55 42.124 104.198 42.124C104.618 42.124 104.966 42.01 105.242 41.782C105.53 41.566 105.788 41.188 106.016 40.648L106.322 39.982L102.11 30.46H103.91L107.24 38.092L110.534 30.46H112.226ZM120.798 31.972H117.306V40H115.578V31.972H112.086V30.46H120.798V31.972ZM127.065 30.784C127.953 30.784 128.745 30.982 129.441 31.378C130.137 31.774 130.677 32.326 131.061 33.034C131.457 33.73 131.655 34.528 131.655 35.428C131.655 36.352 131.445 37.174 131.025 37.894C130.617 38.602 130.035 39.154 129.279 39.55C128.535 39.946 127.683 40.144 126.723 40.144C125.103 40.144 123.849 39.592 122.961 38.488C122.085 37.372 121.647 35.806 121.647 33.79C121.647 31.834 122.049 30.304 122.853 29.2C123.657 28.084 124.887 27.346 126.543 26.986L130.899 26.014L131.151 27.598L127.137 28.462C125.889 28.738 124.959 29.206 124.347 29.866C123.735 30.526 123.387 31.474 123.303 32.71C123.711 32.098 124.239 31.624 124.887 31.288C125.535 30.952 126.261 30.784 127.065 30.784ZM126.759 38.704C127.371 38.704 127.911 38.566 128.379 38.29C128.859 38.014 129.231 37.636 129.495 37.156C129.759 36.664 129.891 36.106 129.891 35.482C129.891 34.534 129.603 33.772 129.027 33.196C128.451 32.62 127.695 32.332 126.759 32.332C125.823 32.332 125.061 32.62 124.473 33.196C123.897 33.772 123.609 34.534 123.609 35.482C123.609 36.106 123.741 36.664 124.005 37.156C124.281 37.636 124.659 38.014 125.139 38.29C125.619 38.566 126.159 38.704 126.759 38.704ZM137.849 40.108C136.901 40.108 136.049 39.898 135.293 39.478C134.537 39.058 133.943 38.482 133.511 37.75C133.091 37.006 132.881 36.166 132.881 35.23C132.881 34.294 133.091 33.46 133.511 32.728C133.943 31.984 134.537 31.408 135.293 31C136.049 30.58 136.901 30.37 137.849 30.37C138.797 30.37 139.643 30.58 140.387 31C141.143 31.408 141.731 31.984 142.151 32.728C142.583 33.46 142.799 34.294 142.799 35.23C142.799 36.166 142.583 37.006 142.151 37.75C141.731 38.482 141.143 39.058 140.387 39.478C139.643 39.898 138.797 40.108 137.849 40.108ZM137.849 38.596C138.461 38.596 139.007 38.458 139.487 38.182C139.979 37.894 140.363 37.498 140.639 36.994C140.915 36.478 141.053 35.89 141.053 35.23C141.053 34.57 140.915 33.988 140.639 33.484C140.363 32.968 139.979 32.572 139.487 32.296C139.007 32.02 138.461 31.882 137.849 31.882C137.237 31.882 136.685 32.02 136.193 32.296C135.713 32.572 135.329 32.968 135.041 33.484C134.765 33.988 134.627 34.57 134.627 35.23C134.627 35.89 134.765 36.478 135.041 36.994C135.329 37.498 135.713 37.894 136.193 38.182C136.685 38.458 137.237 38.596 137.849 38.596ZM153.054 30.46V40H151.326V31.972H147.222L147.114 34.096C147.054 35.38 146.94 36.454 146.772 37.318C146.604 38.17 146.328 38.854 145.944 39.37C145.56 39.886 145.026 40.144 144.342 40.144C144.03 40.144 143.676 40.09 143.28 39.982L143.388 38.524C143.544 38.56 143.688 38.578 143.82 38.578C144.3 38.578 144.66 38.368 144.9 37.948C145.14 37.528 145.296 37.03 145.368 36.454C145.44 35.878 145.506 35.056 145.566 33.988L145.728 30.46H153.054ZM159.743 35.968H157.763V40H156.035V30.46H157.763V34.492H159.779L162.875 30.46H164.729L161.111 35.05L164.981 40H162.947L159.743 35.968ZM169.659 30.37C170.979 30.37 171.987 30.694 172.683 31.342C173.391 31.99 173.745 32.956 173.745 34.24V40H172.107V38.74C171.819 39.184 171.405 39.526 170.865 39.766C170.337 39.994 169.707 40.108 168.975 40.108C167.907 40.108 167.049 39.85 166.401 39.334C165.765 38.818 165.447 38.14 165.447 37.3C165.447 36.46 165.753 35.788 166.365 35.284C166.977 34.768 167.949 34.51 169.281 34.51H172.017V34.168C172.017 33.424 171.801 32.854 171.369 32.458C170.937 32.062 170.301 31.864 169.461 31.864C168.897 31.864 168.345 31.96 167.805 32.152C167.265 32.332 166.809 32.578 166.437 32.89L165.717 31.594C166.209 31.198 166.797 30.898 167.481 30.694C168.165 30.478 168.891 30.37 169.659 30.37ZM169.263 38.776C169.923 38.776 170.493 38.632 170.973 38.344C171.453 38.044 171.801 37.624 172.017 37.084V35.752H169.353C167.889 35.752 167.157 36.244 167.157 37.228C167.157 37.708 167.343 38.086 167.715 38.362C168.087 38.638 168.603 38.776 169.263 38.776ZM97.7244 57.23L100.316 53.774H101.9L99.3624 57.23L101.9 60.668H100.316L97.7244 57.23ZM101.18 57.23L103.772 53.774H105.356L102.818 57.23L105.356 60.668H103.772L101.18 57.23ZM116.119 52.46V62H114.391V53.972H109.009V62H107.281V52.46H116.119ZM122.504 52.37C123.824 52.37 124.832 52.694 125.528 53.342C126.236 53.99 126.59 54.956 126.59 56.24V62H124.952V60.74C124.664 61.184 124.25 61.526 123.71 61.766C123.182 61.994 122.552 62.108 121.82 62.108C120.752 62.108 119.894 61.85 119.246 61.334C118.61 60.818 118.292 60.14 118.292 59.3C118.292 58.46 118.598 57.788 119.21 57.284C119.822 56.768 120.794 56.51 122.126 56.51H124.862V56.168C124.862 55.424 124.646 54.854 124.214 54.458C123.782 54.062 123.146 53.864 122.306 53.864C121.742 53.864 121.19 53.96 120.65 54.152C120.11 54.332 119.654 54.578 119.282 54.89L118.562 53.594C119.054 53.198 119.642 52.898 120.326 52.694C121.01 52.478 121.736 52.37 122.504 52.37ZM122.108 60.776C122.768 60.776 123.338 60.632 123.818 60.344C124.298 60.044 124.646 59.624 124.862 59.084V57.752H122.198C120.734 57.752 120.002 58.244 120.002 59.228C120.002 59.708 120.188 60.086 120.56 60.362C120.932 60.638 121.448 60.776 122.108 60.776ZM137.856 52.46L133.23 62.954C132.822 63.926 132.342 64.61 131.79 65.006C131.25 65.402 130.596 65.6 129.828 65.6C129.36 65.6 128.904 65.522 128.46 65.366C128.028 65.222 127.668 65.006 127.38 64.718L128.118 63.422C128.61 63.89 129.18 64.124 129.828 64.124C130.248 64.124 130.596 64.01 130.872 63.782C131.16 63.566 131.418 63.188 131.646 62.648L131.952 61.982L127.74 52.46H129.54L132.87 60.092L136.164 52.46H137.856ZM144.203 57.032C144.839 57.2 145.331 57.47 145.679 57.842C146.027 58.214 146.201 58.676 146.201 59.228C146.201 59.792 146.009 60.296 145.625 60.74C145.241 61.172 144.707 61.514 144.023 61.766C143.351 62.006 142.595 62.126 141.755 62.126C141.047 62.126 140.351 62.036 139.667 61.856C138.995 61.664 138.395 61.394 137.867 61.046L138.389 59.732C138.845 60.02 139.367 60.248 139.955 60.416C140.543 60.572 141.137 60.65 141.737 60.65C142.553 60.65 143.201 60.512 143.681 60.236C144.173 59.948 144.419 59.564 144.419 59.084C144.419 58.64 144.221 58.298 143.825 58.058C143.441 57.818 142.895 57.698 142.187 57.698H140.441V56.456H142.061C142.709 56.456 143.219 56.342 143.591 56.114C143.963 55.886 144.149 55.574 144.149 55.178C144.149 54.746 143.927 54.41 143.483 54.17C143.051 53.93 142.463 53.81 141.719 53.81C140.771 53.81 139.769 54.056 138.713 54.548L138.245 53.216C139.409 52.628 140.627 52.334 141.899 52.334C142.667 52.334 143.357 52.442 143.969 52.658C144.581 52.874 145.061 53.18 145.409 53.576C145.757 53.972 145.931 54.422 145.931 54.926C145.931 55.394 145.775 55.814 145.463 56.186C145.151 56.558 144.731 56.84 144.203 57.032ZM151.87 52.37C153.19 52.37 154.198 52.694 154.894 53.342C155.602 53.99 155.956 54.956 155.956 56.24V62H154.318V60.74C154.03 61.184 153.616 61.526 153.076 61.766C152.548 61.994 151.918 62.108 151.186 62.108C150.118 62.108 149.26 61.85 148.612 61.334C147.976 60.818 147.658 60.14 147.658 59.3C147.658 58.46 147.964 57.788 148.576 57.284C149.188 56.768 150.16 56.51 151.492 56.51H154.228V56.168C154.228 55.424 154.012 54.854 153.58 54.458C153.148 54.062 152.512 53.864 151.672 53.864C151.108 53.864 150.556 53.96 150.016 54.152C149.476 54.332 149.02 54.578 148.648 54.89L147.928 53.594C148.42 53.198 149.008 52.898 149.692 52.694C150.376 52.478 151.102 52.37 151.87 52.37ZM151.474 60.776C152.134 60.776 152.704 60.632 153.184 60.344C153.664 60.044 154.012 59.624 154.228 59.084V57.752H151.564C150.1 57.752 149.368 58.244 149.368 59.228C149.368 59.708 149.554 60.086 149.926 60.362C150.298 60.638 150.814 60.776 151.474 60.776ZM157.645 60.668L160.183 57.23L157.645 53.774H159.229L161.821 57.23L159.229 60.668H157.645ZM161.101 60.668L163.639 57.23L161.101 53.774H162.685L165.277 57.23L162.685 60.668H161.101Z" fill="black"/>
<path d="M99.36 108.2V125H96.984V110.288H93.192V108.2H99.36ZM109.419 125.192C108.091 125.192 106.907 124.856 105.867 124.184C104.843 123.496 104.035 122.504 103.443 121.208C102.851 119.912 102.555 118.376 102.555 116.6C102.555 114.824 102.851 113.288 103.443 111.992C104.035 110.696 104.843 109.712 105.867 109.04C106.907 108.352 108.091 108.008 109.419 108.008C110.731 108.008 111.899 108.352 112.923 109.04C113.963 109.712 114.779 110.696 115.371 111.992C115.963 113.288 116.259 114.824 116.259 116.6C116.259 118.376 115.963 119.912 115.371 121.208C114.779 122.504 113.963 123.496 112.923 124.184C111.899 124.856 110.731 125.192 109.419 125.192ZM109.419 123.056C110.763 123.056 111.835 122.504 112.635 121.4C113.451 120.296 113.859 118.696 113.859 116.6C113.859 114.504 113.451 112.904 112.635 111.8C111.835 110.696 110.763 110.144 109.419 110.144C108.059 110.144 106.971 110.696 106.155 111.8C105.355 112.904 104.955 114.504 104.955 116.6C104.955 118.696 105.355 120.296 106.155 121.4C106.971 122.504 108.059 123.056 109.419 123.056ZM124.947 125.192C123.619 125.192 122.435 124.856 121.395 124.184C120.371 123.496 119.563 122.504 118.971 121.208C118.379 119.912 118.083 118.376 118.083 116.6C118.083 114.824 118.379 113.288 118.971 111.992C119.563 110.696 120.371 109.712 121.395 109.04C122.435 108.352 123.619 108.008 124.947 108.008C126.259 108.008 127.427 108.352 128.451 109.04C129.491 109.712 130.307 110.696 130.899 111.992C131.491 113.288 131.787 114.824 131.787 116.6C131.787 118.376 131.491 119.912 130.899 121.208C130.307 122.504 129.491 123.496 128.451 124.184C127.427 124.856 126.259 125.192 124.947 125.192ZM124.947 123.056C126.291 123.056 127.363 122.504 128.163 121.4C128.979 120.296 129.387 118.696 129.387 116.6C129.387 114.504 128.979 112.904 128.163 111.8C127.363 110.696 126.291 110.144 124.947 110.144C123.587 110.144 122.499 110.696 121.683 111.8C120.883 112.904 120.483 114.504 120.483 116.6C120.483 118.696 120.883 120.296 121.683 121.4C122.499 122.504 123.587 123.056 124.947 123.056ZM140.474 125.192C139.146 125.192 137.962 124.856 136.922 124.184C135.898 123.496 135.09 122.504 134.498 121.208C133.906 119.912 133.61 118.376 133.61 116.6C133.61 114.824 133.906 113.288 134.498 111.992C135.09 110.696 135.898 109.712 136.922 109.04C137.962 108.352 139.146 108.008 140.474 108.008C141.786 108.008 142.954 108.352 143.978 109.04C145.018 109.712 145.834 110.696 146.426 111.992C147.018 113.288 147.314 114.824 147.314 116.6C147.314 118.376 147.018 119.912 146.426 121.208C145.834 122.504 145.018 123.496 143.978 124.184C142.954 124.856 141.786 125.192 140.474 125.192ZM140.474 123.056C141.818 123.056 142.89 122.504 143.69 121.4C144.506 120.296 144.914 118.696 144.914 116.6C144.914 114.504 144.506 112.904 143.69 111.8C142.89 110.696 141.818 110.144 140.474 110.144C139.114 110.144 138.026 110.696 137.21 111.8C136.41 112.904 136.01 114.504 136.01 116.6C136.01 118.696 136.41 120.296 137.21 121.4C138.026 122.504 139.114 123.056 140.474 123.056ZM162.928 112.16C164.16 112.16 165.264 112.432 166.24 112.976C167.216 113.52 167.976 114.28 168.52 115.256C169.08 116.232 169.36 117.36 169.36 118.64C169.36 119.92 169.08 121.056 168.52 122.048C167.976 123.024 167.216 123.784 166.24 124.328C165.264 124.872 164.16 125.144 162.928 125.144C162.016 125.144 161.176 124.968 160.408 124.616C159.656 124.264 159.016 123.752 158.488 123.08V129.656H156.184V112.28H158.392V114.296C158.904 113.592 159.552 113.064 160.336 112.712C161.12 112.344 161.984 112.16 162.928 112.16ZM162.736 123.128C163.552 123.128 164.28 122.944 164.92 122.576C165.576 122.192 166.088 121.664 166.456 120.992C166.84 120.304 167.032 119.52 167.032 118.64C167.032 117.76 166.84 116.984 166.456 116.312C166.088 115.624 165.576 115.096 164.92 114.728C164.28 114.36 163.552 114.176 162.736 114.176C161.936 114.176 161.208 114.368 160.552 114.752C159.912 115.12 159.4 115.64 159.016 116.312C158.648 116.984 158.464 117.76 158.464 118.64C158.464 119.52 158.648 120.304 159.016 120.992C159.384 121.664 159.896 122.192 160.552 122.576C161.208 122.944 161.936 123.128 162.736 123.128ZM172.45 125.144C172.002 125.144 171.618 124.992 171.298 124.688C170.978 124.368 170.818 123.968 170.818 123.488C170.818 123.024 170.978 122.64 171.298 122.336C171.618 122.016 172.002 121.856 172.45 121.856C172.898 121.856 173.274 122.008 173.578 122.312C173.882 122.616 174.034 123.008 174.034 123.488C174.034 123.968 173.874 124.368 173.554 124.688C173.25 124.992 172.882 125.144 172.45 125.144Z" fill="black"/>
<path d="M232 1V38H269" stroke="black"/>
<line x1="250.5" y1="8" x2="250.5" y2="28" stroke="black"/>
<line x1="260" y1="18.5" x2="240" y2="18.5" stroke="black"/>
</svg>
