<svg width="270" height="162" viewBox="0 0 270 162" fill="none" xmlns="http://www.w3.org/2000/svg">
<path d="M270 1H1V81H270" stroke="black"/>
<path d="M270 81H1V161H270" stroke="black"/>
<path d="M110.576 29.46V39H96.9864V29.46H98.7144V37.488H102.926V29.46H104.654V37.488H108.848V29.46H110.576ZM117.658 39.108C116.71 39.108 115.858 38.898 115.102 38.478C114.346 38.058 113.752 37.482 113.32 36.75C112.9 36.006 112.69 35.166 112.69 34.23C112.69 33.294 112.9 32.46 113.32 31.728C113.752 30.984 114.346 30.408 115.102 30C115.858 29.58 116.71 29.37 117.658 29.37C118.606 29.37 119.452 29.58 120.196 30C120.952 30.408 121.54 30.984 121.96 31.728C122.392 32.46 122.608 33.294 122.608 34.23C122.608 35.166 122.392 36.006 121.96 36.75C121.54 37.482 120.952 38.058 120.196 38.478C119.452 38.898 118.606 39.108 117.658 39.108ZM117.658 37.596C118.27 37.596 118.816 37.458 119.296 37.182C119.788 36.894 120.172 36.498 120.448 35.994C120.724 35.478 120.862 34.89 120.862 34.23C120.862 33.57 120.724 32.988 120.448 32.484C120.172 31.968 119.788 31.572 119.296 31.296C118.816 31.02 118.27 30.882 117.658 30.882C117.046 30.882 116.494 31.02 116.002 31.296C115.522 31.572 115.138 31.968 114.85 32.484C114.574 32.988 114.436 33.57 114.436 34.23C114.436 34.89 114.574 35.478 114.85 35.994C115.138 36.498 115.522 36.894 116.002 37.182C116.494 37.458 117.046 37.596 117.658 37.596ZM133.581 29.46V39H131.853V30.972H126.471V39H124.743V29.46H133.581ZM145.403 29.46V39H143.675V30.972H138.293V39H136.565V29.46H145.403ZM157.008 34.284C157.008 34.416 156.996 34.59 156.972 34.806H149.232C149.34 35.646 149.706 36.324 150.33 36.84C150.966 37.344 151.752 37.596 152.688 37.596C153.828 37.596 154.746 37.212 155.442 36.444L156.396 37.56C155.964 38.064 155.424 38.448 154.776 38.712C154.14 38.976 153.426 39.108 152.634 39.108C151.626 39.108 150.732 38.904 149.952 38.496C149.172 38.076 148.566 37.494 148.134 36.75C147.714 36.006 147.504 35.166 147.504 34.23C147.504 33.306 147.708 32.472 148.116 31.728C148.536 30.984 149.106 30.408 149.826 30C150.558 29.58 151.38 29.37 152.292 29.37C153.204 29.37 154.014 29.58 154.722 30C155.442 30.408 156 30.984 156.396 31.728C156.804 32.472 157.008 33.324 157.008 34.284ZM152.292 30.828C151.464 30.828 150.768 31.08 150.204 31.584C149.652 32.088 149.328 32.748 149.232 33.564H155.352C155.256 32.76 154.926 32.106 154.362 31.602C153.81 31.086 153.12 30.828 152.292 30.828ZM164.387 29.37C165.311 29.37 166.139 29.574 166.871 29.982C167.603 30.39 168.173 30.96 168.581 31.692C169.001 32.424 169.211 33.27 169.211 34.23C169.211 35.19 169.001 36.042 168.581 36.786C168.173 37.518 167.603 38.088 166.871 38.496C166.139 38.904 165.311 39.108 164.387 39.108C163.703 39.108 163.073 38.976 162.497 38.712C161.933 38.448 161.453 38.064 161.057 37.56V42.492H159.329V29.46H160.985V30.972C161.369 30.444 161.855 30.048 162.443 29.784C163.031 29.508 163.679 29.37 164.387 29.37ZM164.243 37.596C164.855 37.596 165.401 37.458 165.881 37.182C166.373 36.894 166.757 36.498 167.033 35.994C167.321 35.478 167.465 34.89 167.465 34.23C167.465 33.57 167.321 32.988 167.033 32.484C166.757 31.968 166.373 31.572 165.881 31.296C165.401 31.02 164.855 30.882 164.243 30.882C163.643 30.882 163.097 31.026 162.605 31.314C162.125 31.59 161.741 31.98 161.453 32.484C161.177 32.988 161.039 33.57 161.039 34.23C161.039 34.89 161.177 35.478 161.453 35.994C161.729 36.498 162.113 36.894 162.605 37.182C163.097 37.458 163.643 37.596 164.243 37.596ZM98.7244 56.23L101.316 52.774H102.9L100.362 56.23L102.9 59.668H101.316L98.7244 56.23ZM102.18 56.23L104.772 52.774H106.356L103.818 56.23L106.356 59.668H104.772L102.18 56.23ZM117.119 51.46V61H115.391V52.972H110.009V61H108.281V51.46H117.119ZM123.504 51.37C124.824 51.37 125.832 51.694 126.528 52.342C127.236 52.99 127.59 53.956 127.59 55.24V61H125.952V59.74C125.664 60.184 125.25 60.526 124.71 60.766C124.182 60.994 123.552 61.108 122.82 61.108C121.752 61.108 120.894 60.85 120.246 60.334C119.61 59.818 119.292 59.14 119.292 58.3C119.292 57.46 119.598 56.788 120.21 56.284C120.822 55.768 121.794 55.51 123.126 55.51H125.862V55.168C125.862 54.424 125.646 53.854 125.214 53.458C124.782 53.062 124.146 52.864 123.306 52.864C122.742 52.864 122.19 52.96 121.65 53.152C121.11 53.332 120.654 53.578 120.282 53.89L119.562 52.594C120.054 52.198 120.642 51.898 121.326 51.694C122.01 51.478 122.736 51.37 123.504 51.37ZM123.108 59.776C123.768 59.776 124.338 59.632 124.818 59.344C125.298 59.044 125.646 58.624 125.862 58.084V56.752H123.198C121.734 56.752 121.002 57.244 121.002 58.228C121.002 58.708 121.188 59.086 121.56 59.362C121.932 59.638 122.448 59.776 123.108 59.776ZM138.856 51.46L134.23 61.954C133.822 62.926 133.342 63.61 132.79 64.006C132.25 64.402 131.596 64.6 130.828 64.6C130.36 64.6 129.904 64.522 129.46 64.366C129.028 64.222 128.668 64.006 128.38 63.718L129.118 62.422C129.61 62.89 130.18 63.124 130.828 63.124C131.248 63.124 131.596 63.01 131.872 62.782C132.16 62.566 132.418 62.188 132.646 61.648L132.952 60.982L128.74 51.46H130.54L133.87 59.092L137.164 51.46H138.856ZM145.203 56.032C145.839 56.2 146.331 56.47 146.679 56.842C147.027 57.214 147.201 57.676 147.201 58.228C147.201 58.792 147.009 59.296 146.625 59.74C146.241 60.172 145.707 60.514 145.023 60.766C144.351 61.006 143.595 61.126 142.755 61.126C142.047 61.126 141.351 61.036 140.667 60.856C139.995 60.664 139.395 60.394 138.867 60.046L139.389 58.732C139.845 59.02 140.367 59.248 140.955 59.416C141.543 59.572 142.137 59.65 142.737 59.65C143.553 59.65 144.201 59.512 144.681 59.236C145.173 58.948 145.419 58.564 145.419 58.084C145.419 57.64 145.221 57.298 144.825 57.058C144.441 56.818 143.895 56.698 143.187 56.698H141.441V55.456H143.061C143.709 55.456 144.219 55.342 144.591 55.114C144.963 54.886 145.149 54.574 145.149 54.178C145.149 53.746 144.927 53.41 144.483 53.17C144.051 52.93 143.463 52.81 142.719 52.81C141.771 52.81 140.769 53.056 139.713 53.548L139.245 52.216C140.409 51.628 141.627 51.334 142.899 51.334C143.667 51.334 144.357 51.442 144.969 51.658C145.581 51.874 146.061 52.18 146.409 52.576C146.757 52.972 146.931 53.422 146.931 53.926C146.931 54.394 146.775 54.814 146.463 55.186C146.151 55.558 145.731 55.84 145.203 56.032ZM152.87 51.37C154.19 51.37 155.198 51.694 155.894 52.342C156.602 52.99 156.956 53.956 156.956 55.24V61H155.318V59.74C155.03 60.184 154.616 60.526 154.076 60.766C153.548 60.994 152.918 61.108 152.186 61.108C151.118 61.108 150.26 60.85 149.612 60.334C148.976 59.818 148.658 59.14 148.658 58.3C148.658 57.46 148.964 56.788 149.576 56.284C150.188 55.768 151.16 55.51 152.492 55.51H155.228V55.168C155.228 54.424 155.012 53.854 154.58 53.458C154.148 53.062 153.512 52.864 152.672 52.864C152.108 52.864 151.556 52.96 151.016 53.152C150.476 53.332 150.02 53.578 149.648 53.89L148.928 52.594C149.42 52.198 150.008 51.898 150.692 51.694C151.376 51.478 152.102 51.37 152.87 51.37ZM152.474 59.776C153.134 59.776 153.704 59.632 154.184 59.344C154.664 59.044 155.012 58.624 155.228 58.084V56.752H152.564C151.1 56.752 150.368 57.244 150.368 58.228C150.368 58.708 150.554 59.086 150.926 59.362C151.298 59.638 151.814 59.776 152.474 59.776ZM158.645 59.668L161.183 56.23L158.645 52.774H160.229L162.821 56.23L160.229 59.668H158.645ZM162.101 59.668L164.639 56.23L162.101 52.774H163.685L166.277 56.23L163.685 59.668H162.101Z" fill="black"/>
<path d="M110.96 121.912V124H98.888V122.368L105.728 115.768C106.56 114.968 107.12 114.28 107.408 113.704C107.696 113.112 107.84 112.52 107.84 111.928C107.84 111.048 107.528 110.368 106.904 109.888C106.296 109.392 105.416 109.144 104.264 109.144C102.408 109.144 100.976 109.752 99.968 110.968L98.336 109.552C98.992 108.752 99.848 108.128 100.904 107.68C101.976 107.232 103.168 107.008 104.48 107.008C106.24 107.008 107.64 107.432 108.68 108.28C109.72 109.112 110.24 110.248 110.24 111.688C110.24 112.584 110.048 113.432 109.664 114.232C109.28 115.032 108.552 115.944 107.48 116.968L102.344 121.912H110.96ZM119.247 124.192C117.919 124.192 116.735 123.856 115.695 123.184C114.671 122.496 113.863 121.504 113.271 120.208C112.679 118.912 112.383 117.376 112.383 115.6C112.383 113.824 112.679 112.288 113.271 110.992C113.863 109.696 114.671 108.712 115.695 108.04C116.735 107.352 117.919 107.008 119.247 107.008C120.559 107.008 121.727 107.352 122.751 108.04C123.791 108.712 124.607 109.696 125.199 110.992C125.791 112.288 126.087 113.824 126.087 115.6C126.087 117.376 125.791 118.912 125.199 120.208C124.607 121.504 123.791 122.496 122.751 123.184C121.727 123.856 120.559 124.192 119.247 124.192ZM119.247 122.056C120.591 122.056 121.663 121.504 122.463 120.4C123.279 119.296 123.687 117.696 123.687 115.6C123.687 113.504 123.279 111.904 122.463 110.8C121.663 109.696 120.591 109.144 119.247 109.144C117.887 109.144 116.799 109.696 115.983 110.8C115.183 111.904 114.783 113.504 114.783 115.6C114.783 117.696 115.183 119.296 115.983 120.4C116.799 121.504 117.887 122.056 119.247 122.056ZM134.775 124.192C133.447 124.192 132.263 123.856 131.223 123.184C130.199 122.496 129.391 121.504 128.799 120.208C128.207 118.912 127.911 117.376 127.911 115.6C127.911 113.824 128.207 112.288 128.799 110.992C129.391 109.696 130.199 108.712 131.223 108.04C132.263 107.352 133.447 107.008 134.775 107.008C136.087 107.008 137.255 107.352 138.279 108.04C139.319 108.712 140.135 109.696 140.727 110.992C141.319 112.288 141.615 113.824 141.615 115.6C141.615 117.376 141.319 118.912 140.727 120.208C140.135 121.504 139.319 122.496 138.279 123.184C137.255 123.856 136.087 124.192 134.775 124.192ZM134.775 122.056C136.119 122.056 137.191 121.504 137.991 120.4C138.807 119.296 139.215 117.696 139.215 115.6C139.215 113.504 138.807 111.904 137.991 110.8C137.191 109.696 136.119 109.144 134.775 109.144C133.415 109.144 132.327 109.696 131.511 110.8C130.711 111.904 130.311 113.504 130.311 115.6C130.311 117.696 130.711 119.296 131.511 120.4C132.327 121.504 133.415 122.056 134.775 122.056ZM157.228 111.16C158.46 111.16 159.564 111.432 160.54 111.976C161.516 112.52 162.276 113.28 162.82 114.256C163.38 115.232 163.66 116.36 163.66 117.64C163.66 118.92 163.38 120.056 162.82 121.048C162.276 122.024 161.516 122.784 160.54 123.328C159.564 123.872 158.46 124.144 157.228 124.144C156.316 124.144 155.476 123.968 154.708 123.616C153.956 123.264 153.316 122.752 152.788 122.08V128.656H150.484V111.28H152.692V113.296C153.204 112.592 153.852 112.064 154.636 111.712C155.42 111.344 156.284 111.16 157.228 111.16ZM157.036 122.128C157.852 122.128 158.58 121.944 159.22 121.576C159.876 121.192 160.388 120.664 160.756 119.992C161.14 119.304 161.332 118.52 161.332 117.64C161.332 116.76 161.14 115.984 160.756 115.312C160.388 114.624 159.876 114.096 159.22 113.728C158.58 113.36 157.852 113.176 157.036 113.176C156.236 113.176 155.508 113.368 154.852 113.752C154.212 114.12 153.7 114.64 153.316 115.312C152.948 115.984 152.764 116.76 152.764 117.64C152.764 118.52 152.948 119.304 153.316 119.992C153.684 120.664 154.196 121.192 154.852 121.576C155.508 121.944 156.236 122.128 157.036 122.128ZM166.75 124.144C166.302 124.144 165.918 123.992 165.598 123.688C165.278 123.368 165.118 122.968 165.118 122.488C165.118 122.024 165.278 121.64 165.598 121.336C165.918 121.016 166.302 120.856 166.75 120.856C167.198 120.856 167.574 121.008 167.878 121.312C168.182 121.616 168.334 122.008 168.334 122.488C168.334 122.968 168.174 123.368 167.854 123.688C167.55 123.992 167.182 124.144 166.75 124.144Z" fill="black"/>
<path d="M233 1V38H270" stroke="black"/>
<line x1="251.5" y1="9" x2="251.5" y2="29" stroke="black"/>
<line x1="261" y1="19.5" x2="241" y2="19.5" stroke="black"/>
</svg>
